<svg xmlns="http://www.w3.org/2000/svg" width="28" height="28" fill="none" viewBox="0 0 28 28"><g clip-path="url(#clip0_304_13)"><path fill="#AD9454" fill-rule="evenodd" d="M14 28C17.713 28 21.274 26.525 23.8995 23.8995C26.525 21.274 28 17.713 28 14C28 10.287 26.525 6.72601 23.8995 4.1005C21.274 1.475 17.713 0 14 0C10.287 0 6.72601 1.475 4.1005 4.1005C1.475 6.72601 0 10.287 0 14C0 17.713 1.475 21.274 4.1005 23.8995C6.72601 26.525 10.287 28 14 28V28Z" clip-rule="evenodd"/><path fill="url(#paint0_linear_304_13)" fill-opacity=".3" fill-rule="evenodd" d="M14 28C17.713 28 21.274 26.525 23.8995 23.8995C26.525 21.274 28 14 28 14C28 14 26.525 6.72601 23.8995 4.1005C21.274 1.475 17.713 0 14 0C10.287 0 6.72601 1.475 4.1005 4.1005C1.475 6.72601 0 10.287 0 14C0 17.713 1.475 21.274 4.1005 23.8995C6.72601 26.525 10.287 28 14 28Z" clip-rule="evenodd"/><path fill="url(#paint1_linear_304_13)" d="M8.18994 14.77L13.9999 18.21L19.7999 14.77L13.9999 22.96L8.18994 14.77V14.77Z"/><path fill="#fff" d="M13.9999 16.93L8.18994 13.49L13.9999 4.33997L19.8099 13.49L13.9999 16.93Z"/></g><defs><linearGradient id="paint0_linear_304_13" x1="0" x2="14" y1="0" y2="28" gradientUnits="userSpaceOnUse"><stop stop-color="#7D5F5F"/><stop offset="1" stop-color="#fff" stop-opacity="0"/></linearGradient><linearGradient id="paint1_linear_304_13" x1="14" x2="14" y1="14.77" y2="22.96" gradientUnits="userSpaceOnUse"><stop stop-color="#fff"/><stop offset="1" stop-color="#fff" stop-opacity=".9"/></linearGradient><clipPath id="clip0_304_13"><rect width="28" height="28" fill="#fff"/></clipPath></defs></svg>